# xmcd
#
# Track frame offsets: 
#        150
#        19081
#        41231
#        57028
#        78346
#        93008
#        109002
#        120861
#        134730
#        148062
#        163594
#        184904
#        196220
#        208886
#
# Disc length: 2982 seconds
#
# Revision: 0
# Processed by: cddbd v1.5.2PL0 Copyright (c) Steve Scherf et al.
# Submitted via: ExactAudioCopyFreeDBPlugin 1.0
#
DISCID=c00ba40e
DTITLE=Vonda Shepard - Heart and Soul. Songs from Ally McBeal
DYEAR=1900
DGENRE=Soul
TTITLE0=Read your mind
TTITLE1=100 tears away
TTITLE2=Someday we'll be together
TTITLE3=To sir, with lov (duet with Al Green)
TTITLE4=Sweet inspiration
TTITLE5=Crying
TTITLE6=Vincent (Starry starry night)
TTITLE7=What becomes of the brokenhearted
TTITLE8=World without love
TTITLE9=Confetti
TTITLE10=Baby, don't you break my hearth slow (duet with Emily Saliers
TTITLE10=of the Indigo Girls)
TTITLE11=This is crazy now
TTITLE12=This old heart of mine (Is weak for you)
TTITLE13=I know him by heart
EXTD=
EXTT0=
EXTT1=
EXTT2=
EXTT3=
EXTT4=
EXTT5=
EXTT6=
EXTT7=
EXTT8=
EXTT9=
EXTT10=
EXTT11=
EXTT12=
EXTT13=
PLAYORDER=
